<svg width="1000" height="1000" viewBox="0 0 1000 1000" fill="none" xmlns="http://www.w3.org/2000/svg">
<path d="M506 923H927" stroke="black" stroke-width="60" stroke-miterlimit="10" stroke-linecap="round"/>
<path d="M927 923V500" stroke="black" stroke-width="60" stroke-miterlimit="10" stroke-linecap="round"/>
<path d="M495 73H74" stroke="black" stroke-width="60" stroke-miterlimit="10" stroke-linecap="round"/>
<path d="M74 75V498" stroke="black" stroke-width="60" stroke-miterlimit="10" stroke-linecap="round"/>
<path d="M438 733C410 718.7 361.2 692.1 330 667.5C355 643.5 478.5 519 500 498C493.7 521 444 712.5 438 733Z" fill="#3E3E3E"/>
<path d="M676.2 327.1C696.5 361.5 728 416 737.8 435.4C708.5 443 535.5 489 499 498.5C515.5 482 654 349.5 676.2 327.1Z" fill="#7E7E7E"/>
<path d="M499.5 498C513 511.5 660.5 653 676.7 669.7C646 689.5 601 716.5 564.9 735.3C560.5 720.5 505.5 519.5 499.5 498Z" fill="#747474"/>
<path d="M500 498.5C494 500 276.5 561 264.5 564.5C263.5 537.5 262 466.5 265.2 433.4C303.5 443.5 493.5 496.5 500 498.5Z" fill="#565656"/>
<path d="M264.6 563.7C312.5 551 467.5 507.5 500.5 498C479.5 519.5 348 654 329 671C307.5 640.5 282.5 600.5 264.6 563.7Z" fill="#3E3E3E"/>
<path d="M499.5 498.5C480.02 421.042 458.441 339.376 437.5 262.3C479 260 520.5 259.5 562.1 261.3C551.5 303 505 478.5 499.5 498.5Z" fill="#969696"/>
<path d="M499.5 498C533.5 489 696.5 445.5 737.7 435.3C739.5 464.5 740.5 536 737.7 562.9C707 555 537 509.5 499.5 498Z" fill="#757575"/>
<path d="M499.5 498.5C507 472.5 549 310 562.1 261.2C594 276.5 643.5 307.5 676.1 327.1C643 361 530 469 499.5 498.5Z" fill="#9C9C9C"/>
<path d="M499.5 498C513 546.5 543.381 657.263 564.7 735.2C545.5 735.2 455 735.2 437.6 735.2C444.5 706 487 549 499.5 498Z" fill="#5C5C5C"/>
<path d="M499.5 498C561.5 514 684 548 737.5 562.9C724 588.5 690 649 676.5 669.7C645 640 545.5 544 499.5 498Z" fill="#646464"/>
<path d="M500 498.5C424.939 479.564 340.5 455 265.1 433.4C285.5 395.5 307.5 360 328.5 326.8C384.48 382.889 447.5 448 500 498.5Z" fill="#464646"/>
<path d="M328.6 326.7C349.5 309.5 401 282 437.5 262.2C456 326.7 486.5 444.5 499.5 498.5C486 485.5 359.5 360 328.6 326.7Z" fill="#787878"/>
<path d="M549 209.2C565.6 205.4 579.8 199.2 593.9 199.6C616.7 200.2 633.6 213.2 641.3 235.3C644.6 244.5 648.9 247.1 658.8 245.7C695 240.7 721.6 262.9 723 298.9C723.4 308.4 725.5 312.8 735.7 314.9C771.2 322.2 789.4 352.7 778.5 386.7C775.2 397 777 401.5 785.9 407.2C815.9 426.2 821.7 461.2 799.6 489.9C794 497.2 793.6 501.4 799.2 508.9C821.8 539.1 816.2 572.9 784.8 592.7C775.9 598.3 775.6 603 778.4 611.9C789.1 646.4 771.9 675.9 736.1 684.2C726.6 686.4 723.3 690 722.9 700C721.4 737.2 695.1 758 657.4 754.2C652.6 753.7 644.7 758.1 642.6 762.4C624.9 799 597 809 559.6 792.2C555.7 790.4 547.7 792 544.6 795C515.6 823.4 485.3 823.4 456.4 795.1C453.3 792 445.3 790.4 441.3 792.2C403.4 809 375.6 799 358.2 762.6C356.1 758.3 348.3 753.8 343.6 754.2C305 758.1 281.1 738 277.2 698.5C276.7 693.6 271 686.5 266.4 685.2C226.6 673.6 213 649.7 223 608.8C224 604.6 220.9 596.9 217.3 594.3C184.6 571 179.4 541.6 202.2 507.4C204.6 503.7 204.6 495.5 202.1 491.8C179.3 458.2 184.6 428.7 217.6 405C221.2 402.4 224.1 394.7 223.1 390.4C213 350 227.3 325 266.8 314.1C271.4 312.8 276.9 305.7 277.4 300.8C281.1 261.4 303.9 242.4 344 245.3C348.7 245.6 356.4 241 358.4 236.6C375.4 200.5 404.4 190.2 441.5 207.6C445.1 209.3 451.8 209.3 454.5 207.1C493.3 174 515 174.6 549 209.2ZM723.8 499.8C723.6 375.3 624.4 276.1 500.1 276.2C376 276.3 276.6 376 277 500.3C277.3 624.4 377.7 724 501.6 723.2C625.1 722.5 724 623 723.8 499.8Z" fill="black"/>
</svg>
