<svg width="1000" height="1000" viewBox="0 0 1000 1000" fill="none" xmlns="http://www.w3.org/2000/svg">
<path d="M506 923H927" stroke="black" stroke-width="60" stroke-miterlimit="10" stroke-linecap="round"/>
<path d="M927 923V500" stroke="black" stroke-width="60" stroke-miterlimit="10" stroke-linecap="round"/>
<path d="M495 73H74" stroke="black" stroke-width="60" stroke-miterlimit="10" stroke-linecap="round"/>
<path d="M74 75V498" stroke="black" stroke-width="60" stroke-miterlimit="10" stroke-linecap="round"/>
<path d="M549 209.2C565.6 205.4 579.8 199.2 593.9 199.6C616.7 200.2 633.6 213.2 641.3 235.3C644.6 244.5 648.9 247.1 658.8 245.7C695 240.7 721.6 262.9 723 298.9C723.4 308.4 725.5 312.8 735.7 314.9C771.2 322.2 789.4 352.7 778.5 386.7C775.2 397 777 401.5 785.9 407.2C815.9 426.2 821.7 461.2 799.6 489.9C794 497.2 793.6 501.4 799.2 508.9C821.8 539.1 816.2 572.9 784.8 592.7C775.9 598.3 775.6 603 778.4 611.9C789.1 646.4 771.9 675.9 736.1 684.2C726.6 686.4 723.3 690 722.9 700C721.4 737.2 695.1 758 657.4 754.2C652.6 753.7 644.7 758.1 642.6 762.4C624.9 799 597 809 559.6 792.2C555.7 790.4 547.7 792 544.6 795C515.6 823.4 485.3 823.4 456.4 795.1C453.3 792 445.3 790.4 441.3 792.2C403.4 809 375.6 799 358.2 762.6C356.1 758.3 348.3 753.8 343.6 754.2C305 758.1 281.1 738 277.2 698.5C276.7 693.6 271 686.5 266.4 685.2C226.6 673.6 213 649.7 223 608.8C224 604.6 220.9 596.9 217.3 594.3C184.6 571 179.4 541.6 202.2 507.4C204.6 503.7 204.6 495.5 202.1 491.8C179.3 458.2 184.6 428.7 217.6 405C221.2 402.4 224.1 394.7 223.1 390.4C213 350 227.3 325 266.8 314.1C271.4 312.8 276.9 305.7 277.4 300.8C281.1 261.4 303.9 242.4 344 245.3C348.7 245.6 356.4 241 358.4 236.6C375.4 200.5 404.4 190.2 441.5 207.6C445.1 209.3 451.8 209.3 454.5 207.1C493.3 174 515 174.6 549 209.2ZM723.8 499.8C723.6 375.3 624.4 276.1 500.1 276.2C376 276.3 276.6 376 277 500.3C277.3 624.4 377.7 724 501.6 723.2C625.1 722.5 724 623 723.8 499.8Z" fill="black"/>
<path d="M489.6 497.7L412.5 472.1C400.9 468.1 393.3 464.6 389.9 461.3C386.4 458.1 384.7 452.7 384.7 445C384.7 430.9 389.1 419.2 397.9 409.8C406.7 400.4 417.6 395.7 430.7 395.7C437.1 395.7 441.8 396.9 444.8 399.4C447.8 401.9 452.1 408.2 457.8 418.3L496.4 489.9V409.1C496.4 394.8 498.9 384.8 503.8 379.3C508.7 373.7 517.6 371 530.5 371C542.6 371 553.3 375.1 562.6 383.2C571.9 391.3 576.5 400.9 576.5 411.7C576.5 416.9 571.4 424.7 561.3 435.1L505.7 493.7L582.8 469.2C593.4 465.7 600.3 464 603.6 464C610.5 464 617 468.3 623.1 477C629.2 485.7 632.2 494.9 632.2 504.8C632.2 514.7 628.7 524.1 621.6 533.2C614.6 542.2 607.2 546.7 599.5 546.7C595.8 546.7 588.6 544.1 578 538.9L505 503.7L552.1 569.7C560 580.6 564 588.1 564 592.3C564 601.4 559.4 609.9 550.3 617.7C541.2 625.5 531.3 629.4 520.6 629.4C510.2 629.4 501.3 626.9 493.7 621.8C486.2 616.7 482.4 610.7 482.4 603.8C482.4 601.6 483 595.8 484.3 586.4L495.1 506.3L447.3 571.5C440.6 580.4 436 585.8 433.4 587.8C430.8 589.8 426.8 590.8 421.4 590.8C409.8 590.8 399.6 586.1 391 576.7C382.3 567.3 378 556.3 378 543.7C378 532.8 380 525.5 383.9 521.6C387.9 517.8 396.6 514.6 410.2 512.1L489.6 497.7Z" fill="black"/>
</svg>
