<svg width="1000" height="1000" viewBox="0 0 1000 1000" fill="none" xmlns="http://www.w3.org/2000/svg">
<path d="M956.7 356.8C937 393.4 913.9 396.6 884.6 366.8C860.6 342.4 836.7 317.9 812.8 293.6C811.9 292.7 810.5 292.4 805.6 289.9C785.1 311.8 764 335 742.3 357.5C702.7 398.5 662.7 439.2 622.8 479.9C605.9 497.2 598 497.2 581.3 480.2C563.9 462.5 546.5 444.8 529.3 427C512.8 409.9 512.8 401.9 529.7 384.6C591 321.8 652.5 259.1 717 193.1C691 167.3 665.2 142.4 640.3 116.5C632.7 108.6 625.1 98.6999 622.4 88.2999C617.1 68.4999 625.9 56.0999 649.9 42.8999C752.2 42.8999 854.4 42.8999 956.7 42.8999C956.7 147.6 956.7 252.2 956.7 356.8Z" fill="black"/>
<path d="M60.3 646.2C80 609.6 103.3 606.2 132.4 636.2C157.1 661.6 181.5 687.3 208.8 715.8C230.9 692.1 251.1 669.9 271.9 648.4C312.5 606.4 353.4 564.8 394.2 523.1C411.1 505.8 419 505.8 435.7 522.7C453.1 540.4 470.5 558.1 487.7 575.9C504.2 593 504.3 601 487.4 618.3C426.1 681.2 364.6 744 300.3 809.7C326.1 835.4 351.9 860.4 376.6 886.4C384.2 894.3 391.7 904.3 394.5 914.6C399.8 934.4 390.9 946.8 367 959.9C265.1 959.9 163.2 959.9 60.2 959.9C60.3 855.4 60.3 750.8 60.3 646.2Z" fill="black"/>
<path d="M506 923H927" stroke="black" stroke-width="60" stroke-miterlimit="10" stroke-linecap="round"/>
<path d="M927 923V500" stroke="black" stroke-width="60" stroke-miterlimit="10" stroke-linecap="round"/>
<path d="M495 73H74" stroke="black" stroke-width="60" stroke-miterlimit="10" stroke-linecap="round"/>
<path d="M74 75V498" stroke="black" stroke-width="60" stroke-miterlimit="10" stroke-linecap="round"/>
</svg>
