<svg width="500" height="500" viewBox="0 0 500 500" fill="none" xmlns="http://www.w3.org/2000/svg">
<path d="M489.297 410.312C485.005 410.312 481.069 407.857 479.382 403.827C478.145 400.903 447.218 331.534 331.59 317.795C307.505 314.871 278.659 313.371 243.627 313.109V399.572C243.627 403.565 241.472 407.182 237.929 409.094C234.405 410.931 230.188 410.669 226.908 408.476L4.76083 258.94C1.76188 256.935 0 253.561 0 250.019C0 246.439 1.76188 243.177 4.76083 241.078L227.002 91.524C230.282 89.2561 234.462 89.1061 238.023 90.9805C241.584 92.8923 243.702 96.5098 243.702 100.39V180.855C292.023 187.153 500 224.527 500 399.666C500 404.746 496.42 409.188 491.397 410.2C490.703 410.312 489.972 410.312 489.297 410.312Z" fill="black"/>
</svg>
