<?xml version="1.0" encoding="UTF-8"?>
<svg viewBox="0 0 431 512" xmlns="http://www.w3.org/2000/svg">
<g>
<title>background</title>
<rect x="-1" y="-1" width="433" height="514" fill="none"/>
</g>
<g>
<title>Layer 1</title>
<path d="m296.16 160.67h126.72l-151.88-151.88v126.72c0 13.879 11.293 25.168 25.168 25.168z"/>
<path d="m296.16 190.67c-30.418 0-55.168-24.75-55.168-55.168v-135.5h-185.83c-30.422 0-55.168 24.746-55.168 55.168v401.66c0 30.422 24.746 55.168 55.168 55.168h321.33c30.418 0 55.168-24.746 55.168-55.168v-266.16h-135.5zm-160.66-98.32c30.418 0 55.168 24.746 55.168 55.168 0 30.418-24.75 55.164-55.168 55.164s-55.164-24.746-55.164-55.164c0-30.422 24.746-55.168 55.164-55.168zm266.16 364.48c0 13.879-11.289 25.168-25.168 25.168h-321.33c-13.879 0-25.168-11.29-25.168-25.168v-128.56l70.797-70.796a14.996 14.996 0 0 1 21.21 0l69.727 69.726 93.825-93.824a15.003 15.003 0 0 1 21.214 0l94.891 94.894v128.56z"/>
</g>
</svg>
