<svg width="420" height="420" viewBox="0 0 420 420" fill="none" xmlns="http://www.w3.org/2000/svg">
<g clip-path="url(#clip0)">
<path d="M158 173.2C173.906 173.2 186.8 160.306 186.8 144.4C186.8 128.494 173.906 115.6 158 115.6C142.094 115.6 129.2 128.494 129.2 144.4C129.2 160.306 142.094 173.2 158 173.2Z" fill="black"/>
<path d="M394.4 250.4C380.8 237.6 363.6 229.2 344.8 226.8V80.4C344.8 64.8 338.4 50.8 328.4 40.4C318 30 304 24 288.4 24H56.4C40.8 24 26.8 30.4 16.4 40.4C6 50.8 0 64.8 0 80.4V264.8V282V319.2C0 334.8 6.4 348.8 16.4 359.2C26.8 369.6 40.8 375.6 56.4 375.6H280.8C295.6 387.6 314 395.2 334.4 395.2C358 395.2 379.2 385.6 394.4 370.4C409.6 355.2 419.2 334 419.2 310.4C419.2 286.8 409.6 265.6 394.4 250.4ZM21.2 80.4C21.2 70.8 25.2 62 31.6 56C38 49.6 46.8 45.6 56.4 45.6H288.4C298 45.6 306.8 49.6 313.2 56C319.6 62.4 323.6 71.2 323.6 80.8V205.6L264.4 146.4C260.4 142.4 253.6 142 249.2 146.4L160 236L99.6 175.2C95.6 171.2 88.8 170.8 84.4 175.2L21.2 239.2V80.4V80.4ZM56 354.8V354.4C46.4 354.4 37.6 350.4 31.2 344C25.2 337.6 21.2 328.8 21.2 319.2V282V269.2L92 198L152.4 258.4C156.4 262.4 163.2 262.4 167.6 258.4L256.8 168.8L315.2 227.6C314 228 312.8 228.4 311.6 228.8C310 229.2 308.4 229.6 306.4 230.4C304.8 230.8 303.2 231.6 301.6 232C300.4 232.4 299.6 232.8 298.4 233.6C296.8 234.4 295.6 234.8 294.4 235.6C292.4 236.8 290.4 238 288.4 239.2C287.2 240 286.4 240.4 285.2 241.2C284.4 241.6 284 242 283.2 242.4C279.6 244.8 276.4 247.6 273.6 250.8C258.4 266 248.8 287.2 248.8 310.8C248.8 316.8 249.6 322.4 250.8 328.4C251.2 330 251.6 331.2 252 332.8C253.2 336.8 254 340.8 256 344.8V345.2C257.6 348.4 259.2 352 261.2 354.8H56V354.8ZM378.8 355.2C367.2 366.8 351.6 373.6 334 373.6C317.2 373.6 301.6 366.8 290.4 356C288.8 354.4 287.2 352.4 285.6 350.8C284.4 349.6 283.2 348 282 346.4C280.4 344.4 279.2 342 278 339.6C277.2 338 276.4 336.8 275.6 335.2C274.8 333.2 274 330.8 273.6 328.4C273.2 326.8 272.4 324.8 272 323.2C271.2 319.2 270.8 314.8 270.8 310.4C270.8 292.8 278 277.2 289.2 265.6C300.4 254 316.4 247.2 334 247.2C351.6 247.2 367.2 254.4 378.8 265.6C390.4 277.2 397.2 292.8 397.2 310.4C397.2 328 390 343.6 378.8 355.2Z" fill="black"/>
<path d="M351.2 313.2L344.8 319.6V275.6C344.8 269.6 340 264.8 334 264.8C328 264.8 323.2 269.6 323.2 275.6V319.6L316.8 313.2C312.8 309.2 306 309.2 301.6 313.2C297.6 317.2 297.6 324 301.6 328.4L326.4 353.2C327.2 354 328.4 354.8 330 355.6C331.2 356 332.4 356.4 333.6 356.4C334 356.4 334 356.4 334 356.4C334.4 356.4 334.4 356.4 334.4 356.4C335.6 356.4 336.8 356 338 355.6C339.2 355.2 340.4 354.4 341.6 353.2L366.4 328.4C370.4 324.4 370.4 317.6 366.4 313.2C362 308.8 355.2 308.8 351.2 313.2Z" fill="black"/>
</g>
<defs>
<clipPath id="clip0">
<rect width="419.2" height="419.2" fill="white"/>
</clipPath>
</defs>
</svg>
